<?xml version="1.0" encoding="utf-8"?>
<svg role="img" width="256" height="256" viewBox="0 0 48 48" aria-labelledby="circleArrowRightIconTitle" stroke="#2329d6" stroke-width="1.5" stroke-linecap="round" stroke-linejoin="round" fill="none" color="#2329d6" version="1.1" id="svg11" xmlns="http://www.w3.org/2000/svg">
  <title id="circleArrowRightIconTitle">Arrow Right</title>
  <rect width="48" height="48" style="stroke-width: 1px; fill: rgb(255, 255, 255); stroke: none;">
    <title>background</title>
  </rect>
  <path d="m 36.11911,18.028145 2.750602,2.750605 -2.750602,2.750603" id="path3" style="stroke-width:1.37531"/>
  <path d="m 30.617902,20.77875 h 6.876509" id="path5" style="stroke-width:1.37531"/>
  <path stroke-linecap="round" d="M 38.869712,20.77875 H 37.494411" id="path7" style="stroke-width:1.37531"/>
  <g style="color:#2329d6;fill:none;stroke:#2329d6;stroke-width:1.5;stroke-linecap:round;stroke-linejoin:round" id="g100" transform="translate(11.594164,8.2289821)">
    <path d="M 12,6 C 12,6 10,4 8,4 6,4 3,6 3,6 v 14 c 0,0 3,-2 5,-2 2,0 4,2 4,2 1.333,-1.333 2.667,-2 4,-2 1.333,0 3,0.667 5,2 V 6 C 19,4.667 17.333,4 16,4 14.667,4 13.333,4.667 12,6 Z" id="path86"/>
    <path stroke-linecap="round" d="M 12,6 V 20" id="path88"/>
  </g>
  <path d="M 11.299099,36.582494 H 10.038144 L 7.9291778,33.38955 v 3.192944 H 6.6682225 v -5.176552 h 1.2609553 l 2.1089662,3.207693 v -3.207693 h 1.260955 z m 4.699106,-2.123714 q 0,0.176976 -0.02212,0.3687 h -2.853738 q 0.0295,0.383449 0.246987,0.586192 0.217575,0.202827 0.534657,0.202827 0.471937,0 0.656287,-0.398197 h 1.342069 q -0.103236,0.405571 -0.372429,0.730027 -0.269109,0.324456 -0.67468,0.508807 -0.40557,0.18435 -0.907002,0.18435 -0.604669,0 -1.076605,-0.258091 -0.471936,-0.25809 -0.737401,-0.7374 -0.265464,-0.479311 -0.265464,-1.120849 0,-0.641538 0.261735,-1.120849 0.26182,-0.479309 0.733756,-0.7374 0.471936,-0.25809 1.083979,-0.25809 0.597294,0 1.061856,0.250716 0.464563,0.250716 0.726297,0.715279 0.26182,0.464562 0.26182,1.083978 z m -1.290451,-0.33183 q 0,-0.324456 -0.221221,-0.516181 -0.221219,-0.191724 -0.55305,-0.191724 -0.317082,0 -0.534657,0.184351 -0.217491,0.184349 -0.269109,0.523554 z m 4.294467,2.455544 -0.789018,-1.142971 -0.66366,1.142971 h -1.364191 l 1.356816,-2.101592 -1.393687,-2.013103 h 1.41581 l 0.789018,1.135597 0.66366,-1.135597 h 1.364191 l -1.378939,2.072095 1.415809,2.0426 z m 4.102744,-1.069231 v 1.069231 h -0.641538 q -0.685783,0 -1.069231,-0.33556 -0.383448,-0.335474 -0.383448,-1.094997 v -1.637029 h -0.501432 v -1.047109 h 0.501432 v -1.002865 h 1.260954 v 1.002865 h 0.825889 v 1.047109 h -0.825889 v 1.651776 q 0,0.184351 0.08849,0.265465 0.08849,0.08112 0.29496,0.08112 z m 6.02219,-2.440796 q 0,0.449815 -0.206473,0.822159 -0.206472,0.37243 -0.634165,0.601024 -0.427691,0.228595 -1.061856,0.228595 h -0.781645 v 1.858249 h -1.260954 v -5.176552 h 2.042599 q 0.619417,0 1.047108,0.213846 0.427693,0.213847 0.64154,0.589921 0.213846,0.376074 0.213846,0.862758 z m -1.998356,0.648913 q 0.361326,0 0.538302,-0.169602 0.176977,-0.169603 0.176977,-0.479311 0,-0.309707 -0.176977,-0.47931 -0.176976,-0.169602 -0.538302,-0.169602 h -0.685783 v 1.297825 z m 2.310098,0.796392 q 0,-0.634164 0.239612,-1.113475 0.239698,-0.479309 0.652642,-0.7374 0.412945,-0.25809 0.92175,-0.25809 0.435067,0 0.763168,0.176976 0.328185,0.176977 0.505161,0.464562 v -0.582546 h 1.260955 v 4.114695 H 32.52123 v -0.582547 q -0.18435,0.287586 -0.512536,0.464563 -0.3281,0.176976 -0.763167,0.176976 -0.501432,0 -0.914377,-0.26182 -0.412943,-0.261735 -0.652641,-0.744774 -0.239612,-0.482955 -0.239612,-1.11712 z m 3.082333,0.0074 q 0,-0.471936 -0.261819,-0.744774 -0.261735,-0.272838 -0.637809,-0.272838 -0.376074,0 -0.637894,0.269109 -0.261735,0.269194 -0.261735,0.74113 0,0.471936 0.261735,0.748419 0.26182,0.276567 0.637894,0.276567 0.376074,0 0.637809,-0.272838 0.261819,-0.272838 0.261819,-0.744775 z m 3.64564,-2.116339 q 0.435067,0 0.763253,0.176977 0.3281,0.176976 0.505076,0.464561 v -0.582546 h 1.260955 v 4.107321 q 0,0.567798 -0.224864,1.028631 -0.22495,0.460918 -0.685783,0.733756 -0.460918,0.272838 -1.1467,0.272838 -0.914377,0 -1.482175,-0.431422 -0.567799,-0.431336 -0.648913,-1.168737 h 1.246208 q 0.05899,0.235968 0.280211,0.372345 0.221221,0.136462 0.545677,0.136462 0.390822,0 0.623146,-0.22495 0.232238,-0.224865 0.232238,-0.718923 V 35.9926 q -0.18435,0.287586 -0.508807,0.468206 -0.324456,0.180706 -0.759522,0.180706 -0.508806,0 -0.92175,-0.26182 -0.412945,-0.261735 -0.652557,-0.744774 -0.239698,-0.482955 -0.239698,-1.117119 0,-0.634164 0.239698,-1.113476 0.239612,-0.479309 0.652557,-0.7374 0.412944,-0.25809 0.92175,-0.25809 z m 1.268329,2.116339 q 0,-0.471936 -0.261734,-0.744774 -0.26182,-0.272838 -0.637894,-0.272838 -0.376074,0 -0.637809,0.269109 -0.26182,0.269194 -0.26182,0.74113 0,0.471936 0.26182,0.748419 0.261735,0.276567 0.637809,0.276567 0.376074,0 0.637894,-0.272838 0.261734,-0.272838 0.261734,-0.744775 z m 5.9604,-0.06636 q 0,0.176976 -0.02213,0.3687 H 40.51973 q 0.0295,0.383448 0.246987,0.586191 0.217575,0.202828 0.534658,0.202828 0.471936,0 0.656285,-0.398197 h 1.342069 q -0.103236,0.405571 -0.372429,0.730027 -0.269109,0.324456 -0.674679,0.508807 -0.40557,0.184349 -0.907003,0.184349 -0.604668,0 -1.076605,-0.25809 -0.471936,-0.25809 -0.7374,-0.7374 -0.265464,-0.479311 -0.265464,-1.120849 0,-0.641538 0.261734,-1.120849 0.26182,-0.47931 0.733757,-0.737401 0.471936,-0.258089 1.083978,-0.258089 0.597294,0 1.061857,0.250716 0.464562,0.250716 0.726297,0.715279 0.26182,0.464562 0.26182,1.083978 z m -1.290451,-0.331861 q 0,-0.324456 -0.22122,-0.51618 -0.22122,-0.191724 -0.55305,-0.191724 -0.317083,0 -0.534658,0.184351 -0.217491,0.184349 -0.269108,0.523553 z" style="white-space:pre;fill:#2329d6;fill-opacity:1;stroke:none;stroke-width:0.127138" id="path1064"/>
</svg>