<?xml version="1.0" encoding="utf-8"?>
<svg role="img" width="256" height="256" viewBox="0 0 48 48" aria-labelledby="circleArrowRightIconTitle" stroke="#2329d6" stroke-width="1.5" stroke-linecap="round" stroke-linejoin="round" fill="none" color="#2329d6" version="1.1" id="svg11" xmlns="http://www.w3.org/2000/svg" xmlns:bx="https://boxy-svg.com">
  <defs>
    <bx:guide x="24" y="27.553" angle="0"/>
    <bx:guide x="51.327" y="24" angle="90"/>
  </defs>
  <title id="circleArrowRightIconTitle">Arrow Right</title>
  <rect width="48" height="48" style="stroke-width: 1px; stroke: none; fill: rgb(44, 62, 137);">
    <title>background</title>
  </rect>
  <path d="M 36.525 17.028 L 39.276 19.779 L 36.525 22.529" id="path3" style="stroke-width: 1.37531; stroke: rgb(255, 255, 255);"/>
  <path d="M 31.024 19.779 L 37.9 19.779" id="path5" style="stroke-width: 1.37531; stroke: rgb(255, 255, 255);"/>
  <path stroke-linecap="round" d="M 39.276 19.779 L 37.9 19.779" id="path7" style="stroke-width: 1.37531; stroke: rgb(255, 255, 255);"/>
  <g style="color:#2329d6;fill:none;stroke:#2329d6;stroke-width:1.5;stroke-linecap:round;stroke-linejoin:round" id="g100" transform="matrix(1, 0, 0, 1, 12, 7.228982)">
    <path d="M 12,6 C 12,6 10,4 8,4 6,4 3,6 3,6 v 14 c 0,0 3,-2 5,-2 2,0 4,2 4,2 1.333,-1.333 2.667,-2 4,-2 1.333,0 3,0.667 5,2 V 6 C 19,4.667 17.333,4 16,4 14.667,4 13.333,4.667 12,6 Z" id="path86" style="stroke: rgb(255, 255, 255);"/>
    <path stroke-linecap="round" d="M 12,6 V 20" id="path88" style="stroke: rgb(255, 255, 255);"/>
  </g>
  <path d="M 10.299 35.582 L 9.038 35.582 L 6.929 32.39 L 6.929 35.582 L 5.668 35.582 L 5.668 30.406 L 6.929 30.406 L 9.038 33.614 L 9.038 30.406 L 10.299 30.406 L 10.299 35.582 Z M 14.998 33.459 C 14.998 33.577 14.991 33.7 14.976 33.827 L 12.122 33.827 C 12.142 34.083 12.224 34.279 12.369 34.414 C 12.514 34.549 12.693 34.616 12.904 34.616 C 13.219 34.616 13.437 34.484 13.56 34.218 L 14.902 34.218 C 14.834 34.489 14.709 34.732 14.53 34.948 C 14.351 35.165 14.126 35.334 13.855 35.457 C 13.585 35.58 13.283 35.641 12.948 35.641 C 12.545 35.641 12.186 35.555 11.872 35.383 C 11.557 35.211 11.311 34.966 11.134 34.646 C 10.957 34.326 10.869 33.953 10.869 33.525 C 10.869 33.097 10.956 32.724 11.131 32.404 C 11.305 32.085 11.55 31.839 11.864 31.667 C 12.179 31.495 12.54 31.409 12.948 31.409 C 13.346 31.409 13.7 31.492 14.01 31.66 C 14.32 31.827 14.562 32.065 14.736 32.375 C 14.911 32.685 14.998 33.046 14.998 33.459 Z M 13.708 33.127 C 13.708 32.911 13.634 32.739 13.487 32.611 C 13.339 32.483 13.155 32.419 12.933 32.419 C 12.722 32.419 12.544 32.48 12.399 32.603 C 12.254 32.726 12.164 32.901 12.13 33.127 L 13.708 33.127 Z M 18.002 35.582 L 17.213 34.44 L 16.55 35.582 L 15.185 35.582 L 16.542 33.481 L 15.148 31.468 L 16.564 31.468 L 17.353 32.603 L 18.017 31.468 L 19.381 31.468 L 18.002 33.54 L 19.418 35.582 L 18.002 35.582 Z M 22.105 34.513 L 22.105 35.582 L 21.463 35.582 C 21.006 35.582 20.65 35.471 20.394 35.247 C 20.139 35.023 20.011 34.658 20.011 34.152 L 20.011 32.515 L 19.509 32.515 L 19.509 31.468 L 20.011 31.468 L 20.011 30.465 L 21.272 30.465 L 21.272 31.468 L 22.098 31.468 L 22.098 32.515 L 21.272 32.515 L 21.272 34.167 C 21.272 34.29 21.301 34.378 21.36 34.432 C 21.419 34.486 21.518 34.513 21.655 34.513 L 22.105 34.513 Z M 28.127 32.072 C 28.127 32.372 28.058 32.646 27.921 32.895 C 27.783 33.143 27.572 33.343 27.287 33.496 C 27.001 33.648 26.647 33.724 26.225 33.724 L 25.443 33.724 L 25.443 35.582 L 24.182 35.582 L 24.182 30.406 L 26.225 30.406 C 26.638 30.406 26.987 30.477 27.272 30.62 C 27.557 30.762 27.771 30.959 27.913 31.21 C 28.056 31.46 28.127 31.748 28.127 32.072 Z M 26.129 32.721 C 26.37 32.721 26.549 32.665 26.667 32.552 C 26.785 32.439 26.844 32.279 26.844 32.072 C 26.844 31.866 26.785 31.706 26.667 31.593 C 26.549 31.48 26.37 31.424 26.129 31.424 L 25.443 31.424 L 25.443 32.721 L 26.129 32.721 Z M 28.439 33.518 C 28.439 33.095 28.519 32.724 28.679 32.404 C 28.838 32.085 29.056 31.839 29.331 31.667 C 29.606 31.495 29.914 31.409 30.253 31.409 C 30.543 31.409 30.797 31.468 31.016 31.586 C 31.235 31.704 31.403 31.859 31.521 32.05 L 31.521 31.468 L 32.782 31.468 L 32.782 35.582 L 31.521 35.582 L 31.521 35 C 31.398 35.192 31.227 35.347 31.009 35.465 C 30.79 35.582 30.536 35.641 30.246 35.641 C 29.911 35.641 29.606 35.554 29.331 35.38 C 29.056 35.205 28.838 34.957 28.679 34.635 C 28.519 34.313 28.439 33.941 28.439 33.518 Z M 31.521 33.525 C 31.521 33.211 31.434 32.962 31.259 32.78 C 31.085 32.599 30.872 32.508 30.622 32.508 C 30.371 32.508 30.158 32.597 29.984 32.777 C 29.809 32.956 29.722 33.203 29.722 33.518 C 29.722 33.832 29.809 34.082 29.984 34.266 C 30.158 34.451 30.371 34.543 30.622 34.543 C 30.872 34.543 31.085 34.452 31.259 34.27 C 31.434 34.088 31.521 33.84 31.521 33.525 Z M 35.167 31.409 C 35.457 31.409 35.711 31.468 35.93 31.586 C 36.149 31.704 36.317 31.859 36.435 32.05 L 36.435 31.468 L 37.696 31.468 L 37.696 35.575 C 37.696 35.954 37.621 36.297 37.471 36.604 C 37.321 36.911 37.093 37.156 36.786 37.338 C 36.478 37.519 36.096 37.61 35.639 37.61 C 35.029 37.61 34.535 37.467 34.157 37.179 C 33.778 36.891 33.562 36.502 33.508 36.01 L 34.754 36.01 C 34.793 36.168 34.887 36.292 35.034 36.383 C 35.182 36.474 35.364 36.519 35.58 36.519 C 35.84 36.519 36.048 36.444 36.203 36.294 C 36.358 36.144 36.435 35.905 36.435 35.575 L 36.435 34.993 C 36.312 35.184 36.143 35.34 35.926 35.461 C 35.71 35.581 35.457 35.642 35.167 35.642 C 34.828 35.642 34.52 35.554 34.245 35.38 C 33.97 35.205 33.752 34.957 33.593 34.635 C 33.433 34.313 33.353 33.941 33.353 33.518 C 33.353 33.095 33.433 32.724 33.593 32.404 C 33.752 32.085 33.97 31.839 34.245 31.667 C 34.52 31.495 34.828 31.409 35.167 31.409 Z M 36.435 33.525 C 36.435 33.211 36.348 32.962 36.173 32.78 C 35.999 32.599 35.786 32.508 35.536 32.508 C 35.285 32.508 35.072 32.597 34.898 32.777 C 34.723 32.956 34.636 33.203 34.636 33.518 C 34.636 33.832 34.723 34.082 34.898 34.266 C 35.072 34.451 35.285 34.543 35.536 34.543 C 35.786 34.543 35.999 34.452 36.173 34.27 C 36.348 34.088 36.435 33.84 36.435 33.525 Z M 42.396 33.459 C 42.396 33.577 42.388 33.7 42.373 33.828 L 39.52 33.828 C 39.539 34.083 39.622 34.279 39.767 34.414 C 39.912 34.549 40.09 34.617 40.301 34.617 C 40.616 34.617 40.835 34.484 40.958 34.218 L 42.3 34.218 C 42.231 34.489 42.107 34.732 41.927 34.948 C 41.748 35.165 41.523 35.334 41.253 35.457 C 40.982 35.58 40.68 35.642 40.346 35.642 C 39.943 35.642 39.584 35.555 39.269 35.383 C 38.954 35.211 38.709 34.966 38.532 34.646 C 38.355 34.326 38.266 33.953 38.266 33.525 C 38.266 33.097 38.353 32.724 38.528 32.404 C 38.702 32.085 38.947 31.839 39.262 31.667 C 39.576 31.495 39.938 31.409 40.346 31.409 C 40.744 31.409 41.098 31.492 41.407 31.66 C 41.717 31.827 41.959 32.065 42.134 32.375 C 42.308 32.685 42.396 33.046 42.396 33.459 Z M 41.105 33.127 C 41.105 32.911 41.031 32.739 40.884 32.611 C 40.736 32.483 40.552 32.419 40.331 32.419 C 40.119 32.419 39.941 32.48 39.796 32.603 C 39.651 32.726 39.562 32.901 39.527 33.127 L 41.105 33.127 Z" style="white-space: pre; fill-opacity: 1; stroke-width: 0.127138; stroke: none; fill: rgb(255, 255, 255);" id="path1064"/>
</svg>